PathFileType	4	(X/Y/Z)	/Users/itak/Documents/Research/Walk-IL/dataset/trc/00524_00183.trc
DataRate	CameraRate	NumFrames	NumMarkers	Units	OrigDataRate	OrigDataStartFrame	OrigNumFrames
100.000000	100.000000	4	53	mm	100.000000	139	557
Frame#	Time	RPSI			LPSI			L3			STRN			T10			C7			CLAV			RBAK			LBAK			LSHO			LUPA			LAEL			LAOL			LWTS			LWPS			LFRA			LIFD			LHPS			LHTS			RSHO			RUPA			RAEL			RAOL			RWTS			RWPS			RFRA			RIFD			RHTS			RHPS			RBHD			LFHD			RFHD			LBHD			LHIP			RHIP			RASI			LASI			LKNE			LTHI			LANK			LTIP			LTOE			LMT1			LMT5			LHEE			RKNE			RTHI			RANK			RTIP			RTOE			RMT1			RMT5			RHEE			
		X1	Y1	Z1	X2	Y2	Z2	X3	Y3	Z3	X4	Y4	Z4	X5	Y5	Z5	X6	Y6	Z6	X7	Y7	Z7	X8	Y8	Z8	X9	Y9	Z9	X10	Y10	Z10	X11	Y11	Z11	X12	Y12	Z12	X13	Y13	Z13	X14	Y14	Z14	X15	Y15	Z15	X16	Y16	Z16	X17	Y17	Z17	X18	Y18	Z18	X19	Y19	Z19	X20	Y20	Z20	X21	Y21	Z21	X22	Y22	Z22	X23	Y23	Z23	X24	Y24	Z24	X25	Y25	Z25	X26	Y26	Z26	X27	Y27	Z27	X28	Y28	Z28	X29	Y29	Z29	X30	Y30	Z30	X31	Y31	Z31	X32	Y32	Z32	X33	Y33	Z33	X34	Y34	Z34	X35	Y35	Z35	X36	Y36	Z36	X37	Y37	Z37	X38	Y38	Z38	X39	Y39	Z39	X40	Y40	Z40	X41	Y41	Z41	X42	Y42	Z42	X43	Y43	Z43	X44	Y44	Z44	X45	Y45	Z45	X46	Y46	Z46	X47	Y47	Z47	X48	Y48	Z48	X49	Y49	Z49	X50	Y50	Z50	X51	Y51	Z51	X52	Y52	Z52	X53	Y53	Z53	

140	1.39	-1106.242919921875	974.8953857421875	-402.734130859375	-1044.3369140625	971.3277587890625	-510.3652648925781	-1080.640991210938	1040.1708984375	-462.6962890625	-878.2463989257812	1198.182373046875	-374.0257568359375	-1095.638793945312	1145.60009765625	-462.3041381835938	-1053.389526367188	1374.552612304688	-436.3521728515625	-909.2877807617188	1293.986450195312	-384.7044067382812	-1130.9990234375	1252.562622070312	-377.1622009277344	-1046.30615234375	1323.3095703125	-529.0018310546875	-930.9423828125	1368.5908203125	-561.961181640625	-916.9778442382812	1244.087036132812	-625.8115234375	-889.1270141601562	1035.390380859375	-647.1817626953125	-987.5382690429688	1025.642211914062	-629.3008422851562	-832.0709838867188	845.529541015625	-562.1582641601562	-866.0720825195312	812.0499877929688	-643.664794921875	-866.736083984375	960.8674926757812	-639.28369140625	-839.5960083007812	686.13330078125	-559.08349609375	-851.8762817382812	758.1973876953125	-625.8257446289062	-815.2700805664062	766.5315551757812	-573.1051025390625	-1054.670166015625	1364.910278320312	-278.8120727539062	-1091.307373046875	1297.014892578125	-232.5203704833984	-1094.751098632812	1028.564331054688	-190.4083862304688	-1135.408081054688	1011.959594726562	-240.3651123046875	-981.7185668945312	828.8287963867188	-201.9033660888672	-1065.172607421875	804.6465454101562	-172.7608947753906	-1090.136596679688	973.8134155273438	-183.0848541259766	-982.6742553710938	666.9136962890625	-201.8795776367188	-972.6533813476562	733.4598388671875	-178.6734619140625	-1043.384887695312	730.3006591796875	-172.4765777587891	-1055.836059570312	1521.36669921875	-345.0249328613281	-883.9261474609375	1595.940673828125	-417.0259399414062	-940.345458984375	1584.83056640625	-303.0647888183594	-998.4623413085938	1530.350708007812	-493.1000671386719	-891.2048950195312	893.5140380859375	-577.1123657226562	-1075.333251953125	874.987060546875	-245.6602783203125	-951.5750122070312	914.947021484375	-256.1130676269531	-843.6712036132812	924.8821411132812	-472.5318908691406	-917.7570190429688	469.1676025390625	-527.9314575195312	-887.341064453125	625.8256225585938	-546.0140380859375	-1028.551635742188	51.2524299621582	-552.0892333984375	-951.0802001953125	319.1779174804688	-541.2599487304688	-881.5297241210938	38.69404602050781	-406.3033142089844	-964.8971557617188	41.96840286254883	-415.3693237304688	-927.2249755859375	50.61246871948242	-508.2059631347656	-1099.08203125	47.59831619262695	-518.2144775390625	-1073.240234375	487.9711608886719	-263.8397216796875	-1055.629272460938	746.4938354492188	-228.9569702148438	-1142.369018554688	47.18191528320312	-306.1414794921875	-1076.47021484375	341.3404541015625	-274.2157287597656	-942.7221069335938	55.92404937744141	-277.9652709960938	-990.726318359375	55.64942932128906	-336.5073547363281	-1041.151000976562	45.64005661010742	-253.2217254638672	-1175.867553710938	39.15707015991211	-368.9159545898438	
141	1.4	-1105.640014648438	974.6798095703125	-403.9700622558594	-1043.825561523438	971.012939453125	-511.634521484375	-1079.172119140625	1040.326416015625	-463.7574768066406	-876.806640625	1197.966918945312	-375.3651123046875	-1094.090942382812	1145.826782226562	-463.321044921875	-1051.708129882812	1374.73095703125	-437.1859436035156	-907.822021484375	1293.801879882812	-385.8486328125	-1129.460327148438	1252.762573242188	-378.1655883789062	-1044.669189453125	1323.684692382812	-530.0010375976562	-929.1942749023438	1369.002197265625	-562.7171020507812	-914.3616333007812	1244.71728515625	-626.7210083007812	-885.0575561523438	1036.232299804688	-648.2476806640625	-983.7274780273438	1026.0947265625	-632.2499389648438	-830.2918701171875	845.6181640625	-562.4537353515625	-861.4038696289062	812.7683715820312	-645.3262329101562	-862.6561889648438	961.6473388671875	-640.1690063476562	-839.666259765625	686.2503051757812	-560.2764282226562	-848.5814819335938	758.639404296875	-627.1846313476562	-813.9365234375	766.3930053710938	-573.0697021484375	-1052.846435546875	1364.827392578125	-279.6963500976562	-1089.5556640625	1296.976318359375	-233.4261779785156	-1093.713256835938	1028.590454101562	-191.2087860107422	-1134.250122070312	1012.030578613281	-241.2818908691406	-980.917724609375	828.6240234375	-201.8123931884766	-1064.604736328125	804.6773681640625	-173.2956237792969	-1089.239868164062	973.8505249023438	-183.8134002685547	-982.7770385742188	666.6913452148438	-202.6694030761719	-972.4410400390625	733.0238647460938	-178.9973754882812	-1043.2509765625	730.1393432617188	-173.4250183105469	-1054.260131835938	1520.96728515625	-345.3928833007812	-882.4519653320312	1596.101440429688	-416.9729919433594	-938.8981323242188	1584.407836914062	-303.1261596679688	-996.802001953125	1530.631469726562	-493.3870239257812	-891.198486328125	892.8903198242188	-578.7813720703125	-1074.340942382812	875.1538696289062	-246.5209808349609	-950.8012084960938	915.379638671875	-257.5202331542969	-842.971923828125	924.7572021484375	-473.9671630859375	-916.7757568359375	468.7805480957031	-528.035400390625	-886.3057861328125	625.4376831054688	-546.4063110351562	-1028.528564453125	51.17521286010742	-552.1513671875	-950.084228515625	318.8042602539062	-541.1683959960938	-881.6917114257812	38.68155670166016	-406.103759765625	-964.9852905273438	41.89215087890625	-415.3121643066406	-927.3187255859375	50.67085266113281	-508.1560668945312	-1099.105346679688	47.44469451904297	-518.3497924804688	-1069.1181640625	487.8202209472656	-264.181884765625	-1053.823852539062	746.5678100585938	-229.8175048828125	-1142.074462890625	47.53256607055664	-306.2179565429688	-1072.600463867188	340.9067993164062	-274.1365966796875	-942.5384521484375	55.48311996459961	-278.1916809082031	-990.47802734375	55.18867492675781	-336.7519836425781	-1040.92138671875	45.64634323120117	-253.3913116455078	-1175.69189453125	39.7164192199707	-369.0126953125	
142	1.41	-1105.036376953125	974.435302734375	-405.2270202636719	-1043.300415039062	970.688232421875	-512.9246215820312	-1077.693603515625	1040.47314453125	-464.8471069335938	-875.3199462890625	1197.726928710938	-376.6654663085938	-1092.470458984375	1146.041015625	-464.3615112304688	-1049.946044921875	1374.89599609375	-438.0560607910156	-906.289306640625	1293.613037109375	-386.9540405273438	-1127.879272460938	1252.955322265625	-379.2330932617188	-1042.918334960938	1324.031616210938	-531.023193359375	-927.325927734375	1369.394897460938	-563.4585571289062	-911.6300048828125	1245.334594726562	-627.6165771484375	-880.9462890625	1037.057861328125	-649.2412719726562	-979.8417358398438	1026.542358398438	-635.0714111328125	-828.393310546875	845.7350463867188	-562.7341918945312	-856.4067993164062	813.5822143554688	-646.9656982421875	-858.5034790039062	962.4754638671875	-640.9773559570312	-839.4976806640625	686.424072265625	-561.622802734375	-844.9313354492188	759.1458740234375	-628.5878295898438	-812.396484375	766.2753295898438	-573.0535888671875	-1051.012817382812	1364.724853515625	-280.6171264648438	-1087.818115234375	1296.908081054688	-234.3775482177734	-1092.656860351562	1028.598999023438	-192.0094909667969	-1133.06884765625	1012.067016601562	-242.1935729980469	-980.0740966796875	828.40673828125	-201.677490234375	-1064.01220703125	804.707763671875	-173.7916717529297	-1088.320678710938	973.8684692382812	-184.5222015380859	-982.851318359375	666.4561767578125	-203.4454956054688	-972.2097778320312	732.57275390625	-179.2855987548828	-1043.091918945312	729.9756469726562	-174.3113708496094	-1052.638671875	1520.520263671875	-345.7697143554688	-880.9458618164062	1596.261352539062	-416.8997802734375	-937.437255859375	1583.963134765625	-303.1712646484375	-995.08154296875	1530.89111328125	-493.6849365234375	-891.0574340820312	892.3191528320312	-580.3544921875	-1073.354125976562	875.2346801757812	-247.3798522949219	-950.109375	915.7627563476562	-258.925537109375	-842.25341796875	924.60009765625	-475.3567199707031	-915.8099365234375	468.40185546875	-528.2590942382812	-885.267333984375	625.0572509765625	-546.8831787109375	-1028.500610351562	51.07875061035156	-552.2388305664062	-949.1959228515625	318.425537109375	-541.1732788085938	-881.8382568359375	38.67311859130859	-405.9440307617188	-965.0591430664062	41.83897018432617	-415.2720031738281	-927.3959350585938	50.71103286743164	-508.1455688476562	-1099.121337890625	47.28706359863281	-518.5325927734375	-1064.52001953125	487.6026000976562	-264.4890441894531	-1051.959716796875	746.5621948242188	-230.7004547119141	-1141.7255859375	48.01898193359375	-306.2964477539062	-1068.36181640625	340.4501953125	-273.9259033203125	-942.3123779296875	54.99187088012695	-278.4013061523438	-990.1831665039062	54.72453689575195	-336.9635009765625	-1040.660278320312	45.66561126708984	-253.5474853515625	-1175.463745117188	40.50625610351562	-369.1192016601562	
143	1.42	-1104.432495117188	974.1658935546875	-406.5038757324219	-1042.753540039062	970.3633422851562	-514.2266845703125	-1076.231567382812	1040.639892578125	-465.9685974121094	-873.7904052734375	1197.467163085938	-377.9052124023438	-1090.785278320312	1146.248046875	-465.4262390136719	-1048.100952148438	1375.050659179688	-438.9590759277344	-904.6714477539062	1293.423583984375	-388.0021057128906	-1126.261840820312	1253.146728515625	-380.3634643554688	-1041.047973632812	1324.347290039062	-532.0543823242188	-925.3359375	1369.7646484375	-564.1761474609375	-908.8134765625	1245.934692382812	-628.4976196289062	-876.8416748046875	1037.858276367188	-650.16943359375	-975.9179077148438	1026.973876953125	-637.719970703125	-826.37548828125	845.8695678710938	-563.0294189453125	-851.1692504882812	814.47998046875	-648.5503540039062	-854.3182983398438	963.3353271484375	-641.7115478515625	-838.9878540039062	686.6548461914062	-563.1383666992188	-840.9552001953125	759.7156372070312	-630.0216064453125	-810.6173706054688	766.197998046875	-573.1005859375	-1049.181396484375	1364.60546875	-281.5664367675781	-1086.110595703125	1296.812622070312	-235.3755798339844	-1091.591796875	1028.591552734375	-192.8134918212891	-1131.87353515625	1012.067932128906	-243.1036987304688	-979.196044921875	828.1879272460938	-201.5166778564453	-1063.39794921875	804.7396850585938	-174.2478332519531	-1087.384521484375	973.8683471679688	-185.2176513671875	-982.869384765625	666.2149658203125	-204.1665496826172	-971.9448852539062	732.1275024414062	-179.5296936035156	-1042.89013671875	729.8167114257812	-175.1131439208984	-1050.9697265625	1520.0322265625	-346.1502685546875	-879.4019165039062	1596.419067382812	-416.80517578125	-935.9596557617188	1583.505615234375	-303.1982116699219	-993.3007202148438	1531.125610351562	-493.9864807128906	-890.6986083984375	891.8221435546875	-581.7805786132812	-1072.392456054688	875.2195434570312	-248.2436065673828	-949.5132446289062	916.08056640625	-260.3092041015625	-841.5165405273438	924.41845703125	-476.6774291992188	-914.874755859375	468.0361022949219	-528.6021118164062	-884.2387084960938	624.68994140625	-547.4334716796875	-1028.470336914062	50.96038055419922	-552.3494262695312	-948.402099609375	318.0465087890625	-541.2628784179688	-881.9647216796875	38.66975402832031	-405.8277282714844	-965.1079711914062	41.81277465820312	-415.2515258789062	-927.4597778320312	50.7340087890625	-508.1716613769531	-1099.128784179688	47.1298828125	-518.7564086914062	-1059.420532226562	487.33984375	-264.7431030273438	-1050.057739257812	746.47265625	-231.6019134521484	-1141.311767578125	48.69074630737305	-306.3873596191406	-1063.758666992188	339.998291015625	-273.5625	-942.0355834960938	54.45862197875977	-278.5762329101562	-989.8223876953125	54.26357650756836	-337.133544921875	-1040.366821289062	45.70810699462891	-253.6819152832031	-1175.15673828125	41.59328842163086	-369.2448120117188	
